<?xml version="1.0" encoding="utf-8"?>
<svg version="1.1" id="Tetris" xmlns="http://www.w3.org/2000/svg" xmlns:xlink="http://www.w3.org/1999/xlink" x="0px" y="0px"
	 viewBox="0 0 1172 372" style="enable-background:new 0 0 1172 372;" xml:space="preserve">
<style type="text/css">
	.st0{fill:#004080;}
	.st1{fill:#FFFFFF;}
	.st2{fill:url(#Gradient);}
</style>
<path id="Shadow" class="st0" d="M1172,130.15V12H870.98v59.13h29.41v241.74h-40.77l-51.15-146.11l36.96-37.26V12H15v118.15h57.61
	V71.13h23.53v241.74H65.71V372h117.45v-59.13h-29.41V71.13h24.54v59.02h57.61V71.13h31.64v241.74h-29.41V372h192.5V252.7h-57.61
	v60.17h-47.87v-97.09h73.02v-59.13h-73.02V71.13h47.87v59.02h116.43V71.13h23.53v241.74h-30.43V372h117.45v-59.13h-29.41V71.13
	h24.54v59.02h57.61V71.13h30.62v241.74h-30.43V372h117.45v-59.13h-29.41v-78.06l21.6-21.78L818.25,372H1172V225.53l-120.69-119.19
	V71.13h63.08v59.02H1172z M787.82,106.34l-46.85,46.33V71.13h46.85V106.34z M1114.39,251.01v61.86h-63.08V252.7H993.7v60.17H958
	V71.13h35.7v58.37L1114.39,251.01z"/>
<path id="Outline" class="st1" d="M358.01,114.15h53.61V0h-188.5v55.13h29.41v245.74h-29.41V356h188.5V240.7h-53.61v60.17h-51.87
	V55.13h51.87V114.15z M939,300.87V55.13h30.43V0H855.98v55.13h29.41v245.74H841.2l-52.04-148.63l37.26-37.56V0h-188.5v55.13h30.43
	v245.74h-30.43V356h113.45v-55.13h-29.41v-80.89l24.43-24.63L802.67,356h166.76v-55.13H939z M721.97,55.13h50.85v38.04l-50.85,50.29
	V55.13z M1099.39,114.15H1153V0H978.7v114.68l120.69,121.5v64.68h-67.08V240.7H978.7V356H1153V212.36L1032.31,93.17V55.13h67.08
	V114.15z M416.83,0v114.15h53.61V55.13h109.68v59.02h53.61V0H416.83z M467.54,356h113.45v-55.13h-29.41V65.96h-53.61v234.91h-30.43
	V356z M0,0v114.15h53.61V55.13h109.68v59.02h53.61V0H0z M379.17,199.78v-55.13h-62.74v55.13H379.17z M164.16,300.87h-29.41V65.96
	H81.14v234.91H50.71V356h113.45V300.87z"/>
<linearGradient id="Gradient" gradientUnits="userSpaceOnUse" x1="576.5" y1="351" x2="576.5" y2="5">
	<stop offset="0" style="stop-color:#FFD5D5"/>
	<stop offset="1" style="stop-color:#FF4080"/>
</linearGradient>
<path id="Fill" class="st2" d="M983.7,112.62V5H1148v104.15h-43.61V50.13h-77.08v45.13L1148,214.45V351H983.7V245.7h43.61v60.17
	h77.08v-71.75L983.7,112.62z M159.16,351v-45.13h-29.41V70.96H86.14v234.91H55.71V351H159.16z M406.62,245.7h-43.61v60.17h-61.87
	V50.13h61.87v59.02h43.61V5h-178.5v45.13h29.41v255.74h-29.41V351h178.5V245.7z M5,5v104.15h43.61V50.13h119.68v59.02h43.61V5H5z
	 M321.43,194.78h52.74v-45.13h-52.74V194.78z M777.82,50.13h-60.85v105.3l60.85-60.17V50.13z M934,50.13v255.74h30.43V351H806.22
	l-57.74-164.84l-31.51,31.76v87.95h29.41V351H642.93v-45.13h30.43V50.13h-30.43V5h178.5v107.62l-38.02,38.32l54.24,154.93h52.74
	V50.13h-29.41V5h103.45v45.13H934z M575.99,351v-45.13h-29.41V70.96h-43.61v234.91h-30.43V351H575.99z M421.83,5v104.15h43.61V50.13
	h119.68v59.02h43.61V5H421.83z"/>
</svg>
